<?xml version="1.0" encoding="utf-8"?>
<!-- Generator: Adobe Illustrator 26.0.3, SVG Export Plug-In . SVG Version: 6.00 Build 0)  -->
<svg version="1.1" id="Layer_1" xmlns="http://www.w3.org/2000/svg" xmlns:xlink="http://www.w3.org/1999/xlink" x="0px" y="0px"
	 viewBox="0 0 113 34" style="enable-background:new 0 0 113 34;" xml:space="preserve">
<style type="text/css">
	.st0{opacity:0.9;fill:#597E5B;}
	.st1{fill:#FFD12E;}
	.st2{opacity:0.9;}
	.st3{fill:#143B26;}
	.st4{fill:#F9B307;}
	.st5{fill:#597E5B;}
</style>
<g>
	<g id="Layer_2_00000090996603098557869040000012894251519864341939_">
		<g id="Layer_1-2">
			<path class="st0" d="M51.6,24.8c-2.5,0-4.4-2-4.4-4.4V5.6c0-2.5,2-4.4,4.4-4.4s4.4,2,4.4,4.4v14.8C56,22.8,54.1,24.8,51.6,24.8
				L51.6,24.8z"/>
			<g>
				<path class="st1" d="M62.9,24.8c-1.2,0-2.3-0.5-3.2-1.3l-7.4-7.4c-1.7-1.7-1.7-4.6,0-6.3c1.7-1.7,4.6-1.7,6.3,0l7.4,7.4
					c1.7,1.7,1.7,4.6,0,6.3C65.2,24.3,64.1,24.8,62.9,24.8z"/>
				<path class="st1" d="M55.5,17.4c-2.5,0-4.4-2-4.4-4.4c0-1.2,0.5-2.3,1.3-3.1l7.4-7.4c1.7-1.7,4.6-1.7,6.3,0s1.7,4.6,0,6.3
					l-7.4,7.4C57.8,16.9,56.7,17.4,55.5,17.4z"/>
				<g class="st2">
					<path class="st3" d="M51.6,13.7c-2.5,0-4.5-1.9-4.5-4.4c0-1.2,0.5-2.4,1.3-3.2l0,0c1.7-1.7,4.6-1.7,6.3,0
						c1.7,1.7,1.7,4.6,0,6.3l0,0C53.9,13.3,52.8,13.7,51.6,13.7z"/>
				</g>
				<g>
					<path class="st4" d="M58.5,20.4c-1.2,0-2.3-0.5-3.2-1.3c-1.7-1.7-1.8-4.5,0-6.3c0,0,0,0,0,0l0,0c1.7-1.7,4.6-1.7,6.3,0
						c1.7,1.7,1.7,4.6,0,6.3l0,0C60.8,19.9,59.6,20.4,58.5,20.4z"/>
				</g>
			</g>
			<path class="st5" d="M47.8,28.1L47.8,28.1v2.3c0,0.7-0.4,1-1.3,1.1c-0.9,0-1.3-0.4-1.3-1.1v-2.3h-0.8v2.4c0,1.1,0.7,1.6,2,1.6
				l0,0c1.3,0,2-0.6,2-1.6v-2.4H47.8z"/>
			<path class="st5" d="M46.5,28c0.2,0,0.4-0.2,0.4-0.4c0,0,0,0,0,0c0-0.2-0.2-0.4-0.4-0.4c0,0,0,0,0,0c-0.2,0-0.4,0.2-0.4,0.4
				C46.1,27.9,46.2,28,46.5,28z"/>
			<path class="st5" d="M69.1,29.2c0-0.5-0.3-1-0.7-1.3c-0.4-0.3-0.9-0.5-1.3-0.5h-0.3l1.7-1.7h-0.9L65,28.2l0.5,0.5
				c0.3-0.4,0.8-0.6,1.3-0.6c0.4,0,0.8,0.1,1,0.4c0.2,0.2,0.3,0.5,0.4,0.8c0,0.2,0,0.4,0,0.8h-7c-0.5,0-0.9-0.3-0.9-0.8
				c0-0.4-0.2-0.7-0.4-1c-0.3-0.3-0.7-0.4-1.1-0.4c-0.8-0.1-1.5,0.6-1.6,1.4c0,0.4-0.4,0.8-0.8,0.7c0,0,0,0-0.1,0h-4.1
				c0-0.4,0-0.7,0-0.9c0-1.2-0.5-1.8-1.5-1.8c-0.5,0-0.9,0.2-1.2,0.6c-0.2,0.4-0.4,0.8-0.3,1.2c0,0.4,0.1,0.8,0.4,1.1
				c0.3,0.3,0.7,0.5,1.2,0.5h0.6c-0.1,0.5-0.4,0.8-0.9,0.8c-0.3,0-0.6,0-0.9-0.1v0.6c0.3,0.1,0.6,0.2,0.9,0.2c0.4,0,0.8-0.1,1.1-0.4
				c0.3-0.3,0.4-0.6,0.5-1h4.3c0.4,0,0.7-0.1,1-0.4c0.2,0.6,0.8,1,1.5,0.9c0.7,0,1.3-0.4,1.5-1c0.2,0.3,0.6,0.5,1,0.5h7.7
				C69.1,29.8,69.1,29.2,69.1,29.2z M51.5,30.1h-0.7c-0.6,0-0.9-0.3-0.9-0.9s0.3-1.2,0.8-1.2c0.3,0,0.5,0.1,0.6,0.4
				c0.1,0.3,0.1,0.5,0.1,0.8L51.5,30.1z M58.9,30.6c-0.5,0-0.8-0.3-0.8-1c0-0.7,0.3-1,0.8-1s0.8,0.3,0.8,1S59.4,30.6,58.9,30.6
				L58.9,30.6z"/>
			<path class="st5" d="M58.5,27.4c0.1,0,0.2,0,0.3-0.1c0,0,0.1-0.1,0.1-0.1c0.1,0.1,0.2,0.2,0.3,0.3c0.2,0,0.4-0.1,0.4-0.4v-0.6
				h-0.3V27c0,0.1,0,0.1-0.1,0.1s-0.1-0.1-0.1-0.2v-0.4h-0.3v0.4c0,0.1,0,0.2-0.1,0.2c-0.1,0-0.1,0-0.1-0.1v-0.5h-0.3v0.6
				C58.2,27.3,58.3,27.4,58.5,27.4z"/>
		</g>
	</g>
</g>
</svg>
