<svg xmlns="http://www.w3.org/2000/svg" width="15" height="130" viewBox="0 0 15 130">
  <defs>
    <style>
      .cls-1 {
        fill: #f9b307;
      }

      .cls-2, .cls-7 {
        fill: #fff;
        font-family: SegoeUI-Bold, Segoe UI;
        font-weight: 700;
      }

      .cls-2 {
        font-size: 6px;
      }

      .cls-3 {
        fill: #fccf2f;
      }

      .cls-4 {
        fill: #5a7f5d;
      }

      .cls-5 {
        fill: #143b26;
      }

      .cls-6 {
        fill: #676525;
      }

      .cls-7 {
        font-size: 7px;
      }
    </style>
  </defs>
  <g id="Group_9" data-name="Group 9" transform="translate(-588.625 1604.625) rotate(-90)">
    <g id="Group_4" data-name="Group 4" transform="translate(-84.125 -2.625)">
      <rect id="Rectangle_1" data-name="Rectangle 1" class="cls-1" width="15" height="130" transform="translate(1688.75 591.25) rotate(90)"/>
    </g>
    <text id="كمّون_لتوصيل_منتجات_السوبر_ماركت_" data-name="كمّون لتوصيل منتجات السوبر ماركت " class="cls-2" transform="translate(1476.625 591.625)"><tspan x="3.401" y="6">كمّون لتوصيل منتجات السوبر</tspan><tspan y="6"> </tspan></text>
    <g id="kammun_logo" data-name="kammun logo" transform="translate(1560.625 595.853)">
      <g id="kammun_logo-2" data-name="kammun logo" transform="translate(-4.922 -6.208)">
        <path id="Path_71" data-name="Path 71" class="cls-3" d="M52.377,7.441a1.853,1.853,0,0,1,.448.413c.4.4.819.783,1.181,1.22a1.784,1.784,0,0,1-2.731,2.289c-.461-.463-.918-.918-1.389-1.381l-.026-.044c.044-1.008.013-2.021.017-3.024,0-.819-.009-1.639-.015-2.456l.026-.044,1.47-1.449a1.721,1.721,0,0,1,1.984-.349,1.809,1.809,0,0,1,1.04,1.767,1.951,1.951,0,0,1-.637,1.223c-.47.467-.937.937-1.405,1.407-.064.066-.154.118-.141.231-.029-.015-.068-.022-.088-.046a1.675,1.675,0,0,0-1.949-.492.309.309,0,0,0-.239.34V9.707a.276.276,0,0,0,.184.3,1.772,1.772,0,0,0,2.471-1.567,3.261,3.261,0,0,0-.2-1Z" transform="translate(-45.218 -2.439)"/>
        <path id="Path_72" data-name="Path 72" class="cls-4" d="M34.069,26.859l.026.044a1.917,1.917,0,0,1-.7,1.565,1.712,1.712,0,0,1-1.885.2,1.639,1.639,0,0,1-.994-1.558q0-1.824,0-3.65c0-.094.011-.184.017-.283.022.011.059.017.064.035a1.852,1.852,0,0,0,1.521,1.218,1.37,1.37,0,0,0,.4.865C33.033,25.82,33.544,26.338,34.069,26.859Z" transform="translate(-29.427 -19.367)"/>
        <path id="Path_73" data-name="Path 73" class="cls-5" d="M32.148,14.129a1.852,1.852,0,0,1-1.514-1.218c0-.018-.042-.024-.064-.035a8.069,8.069,0,0,1,0-1.075c.129-.046.116-.184.165-.274A1.8,1.8,0,0,1,32.7,10.6a2.037,2.037,0,0,1,1.165.79c.024.064.05.129.072.193a1.8,1.8,0,0,1-1.789,2.55Z" transform="translate(-29.457 -9.063)"/>
        <path id="Path_74" data-name="Path 74" class="cls-1" d="M52.873,26.8A1.772,1.772,0,0,1,50.4,28.371a.276.276,0,0,1-.184-.3q0-1.331,0-2.662a.309.309,0,0,1,.239-.34,1.675,1.675,0,0,1,1.949.492c.02.024.059.031.088.046l.119.138a.051.051,0,0,0,.051.061h0A3.261,3.261,0,0,1,52.873,26.8Z" transform="translate(-45.509 -20.807)"/>
        <path id="Path_75" data-name="Path 75" class="cls-4" d="M33.752,4.745a2.037,2.037,0,0,0-1.165-.79,1.8,1.8,0,0,0-1.965.931c-.05.094-.037.228-.165.274a4.834,4.834,0,0,1,.04-1.411A1.716,1.716,0,0,1,32.24,2.423a1.743,1.743,0,0,1,1.727,1.532c.017.145.037.29.053.435,0,.015-.015.029-.024.044C33.927,4.548,33.782,4.6,33.752,4.745Z" transform="translate(-29.353 -2.422)"/>
        <path id="Path_76" data-name="Path 76" class="cls-4" d="M35.863,57.85H35.58a.535.535,0,0,1-.551-.389.808.808,0,0,1,.184-.812.6.6,0,0,1,.674-.088.551.551,0,0,1,.3.551c.013.481.018.481.509.481H37.81a.349.349,0,0,0,.41-.321.631.631,0,0,1,.918-.459.489.489,0,0,1,.3.389c.079.349.127.389.481.389h2.46c.184,0,.235-.048.226-.23a.529.529,0,0,0-.265-.468.652.652,0,0,0-.705.046c-.088.055-.147.158-.266.02s.029-.2.086-.263c.184-.211.406-.4.6-.614A.472.472,0,0,1,42.6,55.9l-.568.632a.849.849,0,0,1,.86.636,2.774,2.774,0,0,1,.028.566c0,.121-.077.112-.156.112-.992,0-1.986.028-2.976-.02-.242-.011-.393-.037-.588.143a.67.67,0,0,1-.841-.1c-.084-.094-.147-.13-.252-.053s-.184.033-.276.033h-1.4c-.162,0-.255.017-.318.2a.636.636,0,0,1-.821.367c-.121-.035-.163-.1-.138-.2s.123-.059.184-.048C35.659,58.226,35.779,58.157,35.863,57.85Zm.064-.509c0-.417-.09-.577-.309-.579s-.314.149-.314.439.088.367.367.395C35.909,57.613,35.966,57.517,35.928,57.341Zm2.59.083c0,.248.136.413.332.408s.327-.171.325-.419-.11-.393-.336-.391S38.516,57.161,38.518,57.424Z" transform="translate(-33.079 -46.054)"/>
        <path id="Path_77" data-name="Path 77" class="cls-4" d="M26.2,61.783v.208c.024.3-.029.577-.351.7a1.069,1.069,0,0,1-1.071-.1.415.415,0,0,1-.175-.3c-.015-.336,0-.672-.009-1.008,0-.125.084-.1.16-.107s.149.017.147.127v.775c0,.318.121.419.479.422s.509-.1.516-.411v-.724c0-.121.013-.195.163-.195s.143.083.14.184C26.194,61.5,26.2,61.636,26.2,61.783Z" transform="translate(-24.59 -50.37)"/>
        <path id="Path_78" data-name="Path 78" class="cls-4" d="M54.44,57.54c.152.073.042.208.14.259.127-.039-.017-.237.127-.233s.017.184.119.224a.3.3,0,0,0,.026-.033c.033-.064-.05-.2.1-.184.077,0,.046.094.05.149,0,.1,0,.211-.13.2a2.228,2.228,0,0,1-.316-.009C54.328,57.861,54.467,57.689,54.44,57.54Z" transform="translate(-48.942 -47.415)"/>
        <path id="Path_79" data-name="Path 79" class="cls-4" d="M28.431,59.479c-.024.07-.04.141-.138.154a.156.156,0,1,1-.042-.309C28.358,59.311,28.392,59.4,28.431,59.479Z" transform="translate(-27.459 -48.871)"/>
        <path id="Path_80" data-name="Path 80" class="cls-6" d="M40.948,13.69c.029-.143.184-.2.244-.31,0,.817.018,1.637.015,2.456,0,1.008.028,2.021-.017,3.024-.518-.522-1.036-1.04-1.55-1.565a1.37,1.37,0,0,1-.4-.861,1.81,1.81,0,0,0,1.585-.705,1.847,1.847,0,0,0,.195-1.837C41,13.819,40.972,13.755,40.948,13.69Z" transform="translate(-36.549 -11.367)"/>
      </g>
    </g>
    <text id="غيّر_للأسهل" data-name="غيّر للأسهل" class="cls-7" transform="translate(1569.459 589.637)"><tspan x="0" y="8">غيّر للأسهل</tspan></text>
  </g>
</svg>
